<svg width="29" height="29" viewBox="0 0 29 29" fill="none" xmlns="http://www.w3.org/2000/svg">
<path d="M1 27.0948V4.01848C1 3.21793 1.31607 2.45017 1.87868 1.88409C2.44129 1.31802 3.20435 1 4 1H25C25.7956 1 26.5587 1.31802 27.1213 1.88409C27.6839 2.45017 28 3.21793 28 4.01848V19.1109C28 19.9114 27.6839 20.6792 27.1213 21.2453C26.5587 21.8114 25.7956 22.1294 25 22.1294H8.4415C7.99185 22.1294 7.54796 22.2312 7.14267 22.4271C6.73737 22.6231 6.38103 22.9081 6.1 23.2613L2.6035 27.6592C2.48714 27.806 2.32834 27.9127 2.14906 27.9646C1.96978 28.0166 1.77889 28.0112 1.60279 27.9492C1.42669 27.8872 1.27409 27.7717 1.1661 27.6186C1.05811 27.4656 1.00007 27.2825 1 27.0948Z" stroke="#205E82" stroke-width="2"/>
</svg>
