<svg width="24" height="36" viewBox="0 0 24 36" fill="none" xmlns="http://www.w3.org/2000/svg">
<path d="M23 12C23 18.0752 12 28.5 12 28.5C12 28.5 1 18.0752 1 12C1 5.92486 5.92486 1 12 1C18.0752 1 23 5.92486 23 12Z" stroke="#205E82" stroke-width="2"/>
<path d="M12 13C12.5523 13 13 12.5523 13 12C13 11.4477 12.5523 11 12 11C11.4477 11 11 11.4477 11 12C11 12.5523 11.4477 13 12 13Z" fill="#D2FDBB" stroke="#205E82" stroke-width="2" stroke-linecap="round" stroke-linejoin="round"/>
<path d="M12 35C12.5523 35 13 34.5523 13 34C13 33.4477 12.5523 33 12 33C11.4477 33 11 33.4477 11 34C11 34.5523 11.4477 35 12 35Z" stroke="#205E82" stroke-width="2" stroke-linecap="round" stroke-linejoin="round"/>
</svg>
